<svg xmlns="http://www.w3.org/2000/svg" width="232" height="57" viewBox="0 0 232 57">
    <path fill="#0046AD" fill-rule="evenodd" d="M91.405 47.8v4.448c0 1.53.232 2.43 1.313 2.43.85 0 1.337-.85 1.337-2.466V47.8h2.211v5.14c0 2.54-1.725 3.511-3.67 3.511-2.175 0-3.756-.91-3.756-3.45V47.8h2.565zm-28.072-.145c1.082 0 1.932.388 2.224.57l-.656 1.337c-.341-.207-.778-.315-1.251-.315-.5 0-.755.243-.755.521 0 .475.718.864 1.544 1.628 1.094 1.022 1.36 1.665 1.36 2.552 0 .754-.618 2.503-3.17 2.503-.998 0-1.994-.231-2.673-.776l.776-1.41c.366.28.852.594 1.458.594.51 0 1.07-.255 1.07-.886 0-.682-.826-1.18-1.495-1.762-.886-.778-1.41-1.227-1.41-2.272 0-1.36 1.374-2.284 2.978-2.284zm48.688.145v1.592h-2.6v1.678h2.54v1.59h-2.54v2.054h3.123v1.593h-5.687V47.8h5.164zm-6.73 0v1.592h-2.454v6.914h-2.564v-6.914h-2.456V47.8h7.474zm-17.982 0v1.592h-2.453v6.914H82.29v-6.914h-2.455V47.8h7.473zm-13.246 0v1.592h-2.454v6.914h-2.564v-6.914H66.59V47.8h7.473zm-21.075 0c1.228 1.507 3.063 3.718 3.67 4.872h.024V47.8H58.7v8.506h-1.713c-1.276-1.544-3.002-3.573-3.816-4.981h-.024v4.981h-2.018V47.8h1.86zM34.842 2.092c.32.731 2.597 5.582-.385 11.362-1.934 3.757-5.313 5.72-7.895 5.785-5.258.134-6.445-5.615-6.356-6.523.061-.667.442-.49.62-.067.173.415 1.37 4.132 5.266 4.504 3.536.338 9.53-5.403 7.37-12.859-.594-2.055-.957-1.963-2.072-1.7-6.099 1.46-24.575 9.445-28.903 28.272-1.078 4.695-.171 18.862 13.44 22.636 9.242 2.563 21.422-1.93 23.63-15.319 1.29-7.783-2.473-14.616-9.986-15.737-3.793-.568-9.125.687-9.61 6.346-.478 5.487 4.494 6.936 6.956 7.018 2.484.087 5.076-1.85 6.793-5.461.114-.245.425-.338.45.133-.025 1.588-1.66 6.826-7.883 8.945-5.662 1.933-10.298-.597-12.735-3.003-2.674-2.632-4.14-6.556-4.338-9.654-.044-.666.54-.748.664-.146.168.87.891 5.195 5.135 8.633 5.013 4.058 10.476 2.412 10.476 2.412s-8.325-.973-7.618-9.415c.491-5.859 6.336-8.21 11.263-7.942 2.551.139 13.623 3.01 12.508 16.706C40.1 51.267 29.026 56.306 20.897 56.306 6.884 56.411-3.958 42.991 1.39 27.203 7.393 9.488 26.06 1.581 31.556.506c2.376-.47 2.816.523 3.286 1.586zM78.317 47.8v8.505h-2.565V47.8h2.565zm-29.189 0v8.505h-2.565V47.8h2.565zm172.139-11.23c.37-2.161 1.832-2.593 3.039-.897 1.178 1.673 1.602 2.903 2.838 4.462 2.252 2.856 4.465 4.741 4.175 8.61-.203 2.82-.816 5.221-3.006 6.257-2.182 1.057-3.957.113-6.006-1.241-2.023-1.336-.317-4.902 1.705-3.566 1.041.694 1.875 1.562 2.987 1.028.907-.436.765-1.658.852-2.832.2-2.608-1.746-3.552-3.26-5.473-.2-.25-.372-.498-.54-.737-.255 2.153-.594 4.146-1.688 6.471-1.896 4.049-4.848 6.463-8.83 6.042-.99-.097-1.787-.534-2.434-1.19a8.918 8.918 0 0 1-2.164 1.109c-2.518.925-5.343-1.801-5.579-4.946-.205-2.58.126-6.569-2.036-6.127-.98.206-.265 1.92-.323 3.106-.147 2.724.292 4.176-.158 6.842-.007.017-.013.033-.018.05-.005.013-.005.025-.005.041-.513 2.511-3.805 2.206-3.89-.37v-.04c0-.021-.005-.034-.005-.058 0-2.363.071-3.994-.285-6.037v.001l-.01.3c-.066 2.402.01 4.464-1.459 6.15l-.191.21c-2.335 2.453-5.075 3.25-7.925 1.688-2.74-1.51-3.589-4.381-4.076-7.883-.442-3.116-.652-5.809 1.304-7.964 2.133-2.322 6.282-2.01 7.57 1.027 1.502 3.435-1.89 7.744-5.182 7.95.26 1.364.697 2.526 1.857 3.162 1.499.823 2.913.253 4.152-1.036 1.345-1.41.383-3.313.578-5.48.174-2.408 1.162-4.709 3.205-4.808.936-.045 1.614.457 2.12 1.228.494-1.187 1.243-2.081 2.374-2.312 3.978-.81 5.707 3.23 5.865 9.983.021.734.51 1.629 1.09 1.418a6.055 6.055 0 0 0 1.34-.684 21.77 21.77 0 0 1-.604-2.669c-.463-2.984-.995-5.176.16-7.893 1.349-3.076 6.129-3.583 7.72-.604 1.527 2.923.554 5.907-.976 8.758-.604 1.104-1.157 2.106-1.756 2.995.018.005.03.01.05.01 2.498.268 4.285-1.406 5.474-3.949 1.643-3.481 1.262-6.182 1.95-10.101zm-46.81-9.385c3.677-.597 6.882 2.3 7.898 6.462.632 2.621-2.711 3.747-3.345 1.123-.534-2.193-2.159-3.847-4.09-3.534-.924.14-1.65 1.331-2.092 2.27-2.014 4.261-2.458 7.832-2.458 12.714 0 2.07.407 4.01 2.014 4.775.768.366 1.33.3 2.09-.016 2.624-1.165 3.116-4.374 3.116-7.685 0-.032.008-.063.008-.097 0-.085.003-.16.016-.237.242-2.28 2.905-2.471 3.381-.242.015.07.027.155.042.226l.013.103c.432 4.094.479 6.384 1.143 10.357.45 2.681-2.963 3.473-3.412.794a54.658 54.658 0 0 1-.25-1.594 7.663 7.663 0 0 1-2.85 2.215c-1.661.696-2.934.75-4.59-.026-2.943-1.402-4.2-4.812-4.2-8.573 0-5.679.558-9.752 2.898-14.698 1.004-2.134 2.587-4.022 4.667-4.337zm-40.567-2.627c.704-1.761 1.942-2.598 3.706-2.29 2.632.48 4.032 2.65 4.701 5.577.611 2.635-2.747 3.702-3.36 1.07-.29-1.275-.72-2.396-1.86-2.6-.301-.055-.558 5.171-.511 7.92.021.86.042 1.669.07 2.447 2.238-.502 4.468-1.113 6.837-2.203 1.004-.463 1.777-.28 2.154.396.08-.073.162-.155.262-.228 1.439-1.066 2.495-1.402 4.094-2.025 1.486-.58 3.14-1.088 4.294.269.644.752 1.15 1.506 1.553 2.271 1.676-2.602 4.486-2.91 7.369-2.134 2.258.61 1.484 4.59-.779 3.978-1.54-.416-3.155-.724-3.962.87-1.492 2.998-.237 5.442-.536 8.903v.036c-.24 2.671-3.143 2.73-3.456.061 0-.014-.005-.019-.005-.026-.515-4.483.092-7.862-2.64-11.07-.257-.3-.405.592-.74.723-.567.226-1.056.392-1.52.592 1.464 2.86 1.571 6.536-.519 8.93-1.772 2.013-3.868 1.855-6.368 1.71-.98-.051-1.54-.677-1.65-1.824-.236-2.572.167-4.396.645-6.419-1.654.54-3.26.924-4.874 1.278.146 3.029.391 5.84.904 9.666.365 2.696-3.071 3.334-3.434.647-.513-3.765-.757-6.59-.915-9.558-1.22.279-2.464.594-3.755.997-2.24.7-3.137-3.252-.894-3.955 1.54-.482 3.024-.83 4.478-1.15l-.094-3.075c-.056-3.497-.495-6.666.805-9.784zm79.675 16.455c-.344-.651-1.364-.365-1.659.303-.762 1.794-.18 3.21.137 5.157.179-.335.365-.68.563-1.042.792-1.476 1.748-2.908.96-4.418zm-24.815 1.439c-.358-.833-1.515-.521-2.096.116-.523.57-.642 1.227-.602 1.956a1.66 1.66 0 0 1 .379-.044c1.123 0 2.824-.863 2.319-2.028zm-43.137-4.603c-.46 2.193-1.088 3.82-1.172 5.971.81.072 1.538-.01 2.177-.728 1.262-1.45.389-3.82-.939-5.166-.024-.02-.042-.045-.066-.077zm-45.664-6.015c.56 0 1.568.158 2.176.426l-.634 1.506c-.411-.121-1.165-.158-1.408-.158-1.229 0-2.468.79-2.468 2.638 0 1.811 1.253 2.613 2.59 2.613a6.05 6.05 0 0 0 1.446-.194l.498 1.59a6.218 6.218 0 0 1-2.054.377c-2.832 0-5.152-1.702-5.152-4.484 0-2.575 2.115-4.314 5.006-4.314zm-49.594.146c2.005 0 3.087.875 3.087 2.272 0 1.3-.646 2.066-1.434 2.455l1.883 3.646-2.746.28-1.349-3.367h-.668v3.22h-2.565V31.98h3.792zm40.057 0c2.003 0 3.085.875 3.085 2.272 0 1.3-.644 2.066-1.434 2.455l1.885 3.646-2.747.28-1.35-3.367h-.668v3.22H86.62V31.98h3.792zm-24.702-.146c1.082 0 1.933.39 2.225.571l-.657 1.337c-.34-.206-.778-.316-1.252-.316-.498 0-.753.243-.753.523 0 .474.716.863 1.543 1.629 1.093 1.02 1.361 1.663 1.361 2.552 0 .752-.62 2.502-3.172 2.502-.997 0-1.992-.231-2.673-.778l.778-1.41c.364.28.85.597 1.458.597.51 0 1.07-.256 1.07-.887 0-.681-.826-1.18-1.496-1.763-.886-.779-1.408-1.227-1.408-2.273 0-1.36 1.373-2.284 2.976-2.284zm-4.967.145v1.594h-2.6v1.676h2.54v1.592h-2.54v2.054h3.123v1.592h-5.687V31.98h5.164zm14.377 0v1.594h-2.6v1.676h2.54v1.592h-2.54v2.054h3.122v1.592h-5.686V31.98h5.164zm31.402.001v3.014h2.625V32.04h2.565v8.447h-2.565v-3.9h-2.625v3.9h-2.563V31.98h2.563zm-24.428 0l3.231 8.507h-2.722l-.667-2.03h-2.639l-.813 2.03H76.48l3.462-8.507h2.152zm-1.397 2.091h-.027c-.328 1.215-.619 2.028-.934 3.038h1.786c-.28-1.01-.523-1.823-.825-3.038zM228.69 31.9c1.112 0 2.018.94 2.018 2.095 0 1.156-.906 2.097-2.018 2.097-1.113 0-2.019-.94-2.019-2.097 0-1.154.906-2.095 2.02-2.095zM49.81 33.573h-.681v2.09h.728c.68 0 1.022-.585 1.022-1.046 0-.838-.523-1.044-1.07-1.044zm40.055 0h-.68v2.09h.728c.681 0 1.02-.585 1.02-1.046 0-.838-.52-1.044-1.068-1.044zm138.826-1.162c-.846 0-1.526.71-1.526 1.584 0 .879.68 1.584 1.526 1.584.844 0 1.524-.705 1.524-1.584 0-.875-.68-1.584-1.524-1.584zm.06.487c.442 0 .817.137.817.664 0 .404-.196.61-.548.628l.387.66a.285.285 0 0 1 .035.12c0 .125-.077.2-.26.2-.173 0-.228-.138-.299-.275l-.347-.669h-.163v.669c0 .16-.055.275-.248.275-.19 0-.247-.092-.247-.275v-1.757c0-.134.045-.24.251-.24zm.035.41h-.413v.505h.413c.179 0 .287-.045.287-.251 0-.205-.108-.254-.287-.254zM154.73 2.05c.237 3.645.813 13.625.83 17.29.033 2.605.073 4.384-1.351 6.342-1.336 1.863-3.006 2.689-5.209 2.21-3.71-.823-4.482-5.043-5.033-9.192-.366-2.804 3.439-3.36 3.81-.553.305 2.311-.141 5.126 1.923 5.587.726.158 1.045-.103 1.481-.718.838-1.151.553-2.158.533-3.687-.02-3.546-.59-13.492-.82-17.029-.184-2.823 3.652-3.073 3.836-.25zM200.39 7.89c.073-1.78.945-2.427 2.37-1.748 4.524 2.145 7.946 5.036 8.703 10.678.542 3.955-2.263 8.311-5.616 7.784-1.663-.243-2.47-1.987-3.258-3.69-1.104-2.418 1.95-4.306 3.06-1.889.241.54.054 1.45.571 1.523 1.249.198 2.003-1.696 1.807-3.167-.416-3.105-2.087-4.903-4.303-6.272-.291 4.348-1.039 7.84-4.188 10.636-1.685 1.511-4.035 1.949-5.425.148-1.44-1.883-1.026-4.062-1.195-6.66-.101-1.537.078-2.711-.626-3.983-.27-.502-.636 1.272-.878 1.786a8.373 8.373 0 0 0-.75 2.277c.376 2.195.303 4.602.154 7.298-.007.053-.017.101-.022.146-.012.088-.02.18-.043.26-.42 2.138-3.092 1.962-3.387-.22-.01-.082-.012-.175-.018-.268-.003-.046-.014-.097-.01-.148.007-2.013-.032-3.734.075-5.367a9.953 9.953 0 0 0-.345-1.856c.008 1.204.113 2.456-.363 3.723-1.286 3.404-3.35 5.623-6.551 5.61-1.023-.007-1.617-.62-1.76-1.806a6.24 6.24 0 0 0-.047-.393c-1.258 2.045-2.669 3.642-4.994 3.543-1.445-.065-2.404-1.127-2.986-2.575-.43.65-.95 1.276-1.61 1.868-2.812 2.46-6.552 2.497-9.07-.453-3.773-4.365-4.059-13.29.613-15.833 3.001-1.58 7.533 2.196 7.197 6.123-.277 3.565-3.016 5.116-6.046 5.928.205.324.424.638.66.913 1.255 1.467 3.115 1.26 4.516.035 2.017-1.794 2.409-4.043 2.87-6.548.079-1.791.415-3.412 1.311-4.744.424-.854 1.053-1.433 1.808-1.777 2.546-1.618 5.678-.586 7.446 2.302.641.082 1.256.543 1.485 1.356.004.015.005.034.011.049.026.117.054.229.068.35.01.087.006.185.007.275.001.06.008.122.01.194-.148 2.655-.191 4.433-.022 6.65.843-.559 1.436-1.572 1.891-2.788 1.066-2.827-.036-5.504 1.732-7.88.783-1.06 1.631-1.094 2.515-.103.475.535.88 1.083 1.23 1.645.02-.033.031-.073.054-.109 1.162-2.465 4.862-4.024 6.168-1.618 1.06 1.912 1.03 3.603 1.18 5.911.105 1.607-.605 3.018.283 4.183.244.313.423-.455.72-.716 2.945-2.613 2.829-6.17 2.998-10.583zM85.66 16.013c.56 0 1.568.159 2.176.425l-.632 1.508c-.413-.122-1.166-.158-1.409-.158-1.227 0-2.469.79-2.469 2.637 0 1.811 1.253 2.613 2.59 2.613.547 0 1.057-.098 1.446-.194l.498 1.591a6.216 6.216 0 0 1-2.053.376c-2.83 0-5.153-1.7-5.153-4.483 0-2.577 2.115-4.315 5.006-4.315zm-21.248.147v1.591h-2.6v1.677h2.54v1.592h-2.54v2.054h3.123v1.592H59.25V16.16h5.164zm29.7 0l3.232 8.506h-2.722l-.668-2.03H91.32l-.815 2.03h-2.005l3.462-8.506h2.153zm-15.226 0v8.506h-2.564V16.16h2.564zm-8.975 0c3.402 0 4.715 1.956 4.715 4.01 0 3.11-2.26 4.495-4.812 4.495h-3.207V16.16h3.304zm-19.874 0c.584 1.628 1.168 3.244 1.738 5.237h.025c.547-1.993 1.118-3.609 1.676-5.237h3.403v8.506h-2.565v-5.954h-.024c-.656 2.223-1.336 4.095-2.016 5.954h-1.617c-.693-1.86-1.385-3.731-2.053-5.954h-.024v5.954h-2.018V16.16h3.475zm51.3 0v6.914h3.11v1.592h-5.674V16.16h2.563zm-31.426 1.592h-.74v5.322h.656c1.471 0 2.163-1.179 2.163-2.893 0-1.543-.96-2.43-2.079-2.43zm105.32-5.623a1.721 1.721 0 0 0-1.118.401c-.143.112-.274.24-.397.372-.604 1.598-.966 3.133-1.304 4.587 0 .768.046 1.544.095 2.305.058.892.131 1.926.898 1.96 1.489.056 2.378-.819 3.167-2.225.923-1.63 1.284-3.383 1.48-5.323a2.243 2.243 0 0 1-.504-.394c-.005-.006-.014-.01-.017-.018l-.008-.002c-.63-.655-1.519-1.395-2.292-1.663zM92.716 18.25h-.026c-.327 1.215-.62 2.028-.934 3.037h1.786c-.28-1.009-.523-1.822-.826-3.037zm71.318-3.767c.102-1.215-1.298-2.405-2.238-1.911-1.433.778-1.87 2.606-1.65 4.523.132-.074.275-.142.444-.184 1.535-.41 3.302-.61 3.444-2.428zM119.649.333c1.081 0 1.932.39 2.224.571l-.656 1.337c-.34-.207-.778-.315-1.252-.315-.498 0-.753.242-.753.522 0 .474.717.862 1.544 1.628 1.092 1.02 1.36 1.665 1.36 2.552 0 .754-.62 2.504-3.172 2.504-.995 0-1.992-.232-2.673-.779l.778-1.41c.364.28.85.596 1.457.596.51 0 1.069-.255 1.069-.886 0-.68-.826-1.179-1.492-1.763-.888-.777-1.41-1.227-1.41-2.271 0-1.362 1.372-2.286 2.976-2.286zm-68.538 0c.559 0 1.568.158 2.175.425l-.632 1.508c-.413-.122-1.166-.158-1.41-.158-1.227 0-2.466.79-2.466 2.636 0 1.812 1.252 2.613 2.588 2.613.547 0 1.058-.097 1.446-.193l.499 1.59a6.216 6.216 0 0 1-2.053.377c-2.832 0-5.153-1.7-5.153-4.484 0-2.576 2.114-4.314 5.006-4.314zm39.97.147c2.003 0 3.085.874 3.085 2.271 0 1.3-.644 2.067-1.434 2.455l1.884 3.646-2.747.28-1.348-3.367h-.67v3.22h-2.563V.48h3.792zm-33.277 0v3.013h2.623V.54h2.565v8.445h-2.565v-3.9h-2.623v3.9h-2.565V.48h2.565zm10.425 0v8.506h-2.564V.48h2.564zm5.006 0v6.914h3.11v1.592H70.67V.48h2.565zm7.828 0c3.402 0 4.715 1.955 4.715 4.01 0 3.11-2.26 4.495-4.812 4.495h-3.208V.48h3.305zm20.175 0V2.07h-2.602v1.677h2.54V5.34h-2.54v2.054h3.125v1.592h-5.687V.48h5.164zm4.131 0c1.227 1.505 3.063 3.718 3.67 4.873h.024V.48h2.018v8.505h-1.714c-1.275-1.542-3.001-3.572-3.816-4.981h-.025v4.981h-2.015V.48h1.858zM81.063 2.072h-.741v5.322h.655c1.47 0 2.162-1.18 2.162-2.893 0-1.544-.957-2.43-2.076-2.43zm9.47 0h-.681v2.09h.73c.68 0 1.021-.584 1.021-1.046 0-.838-.523-1.045-1.07-1.045zm23.77-2.018c.399 0 .874.4.279 1.422l-1.24 2.102-.839-.303.608-2.018c.219-.728.522-1.203 1.191-1.203z"/>
</svg>
